<svg width="26" height="22" viewBox="0 0 26 22" fill="none" xmlns="http://www.w3.org/2000/svg">
<path d="M21.543 8.38934V14.8894C20.6124 15.6349 19.6093 16.2427 18.5603 16.7129C18.2994 16.8299 18.0358 16.9385 17.7695 17.0386C15.6901 17.8194 13.4634 18.0807 11.2858 17.8226C8.79014 17.5268 6.35912 16.5489 4.28735 14.8894V8.38934L21.543 8.38934Z" fill="#636363"/>
<path d="M8.51819 8.38956V17.2012C7.01536 16.6967 5.58149 15.926 4.28735 14.8896V8.38956H8.51819Z" fill="#494949"/>
<path d="M18.5604 9.76627V16.7129C18.2994 16.8299 18.0358 16.9385 17.7695 17.0386V9.76627C17.7695 9.49885 17.9467 9.28168 18.165 9.28168C18.3832 9.28168 18.5604 9.49885 18.5604 9.76627Z" fill="#494949"/>
<path d="M21.543 8.38934V8.9165L12.9152 12.2057L4.28735 8.9165V8.38934H21.543Z" fill="#494949"/>
<path d="M25.83 4.94916V6.75469L12.915 11.6786L0 6.75469V4.94916L12.915 0.025238L25.83 4.94916Z" fill="#636363"/>
<path d="M12.915 9.87328V11.6786L0 6.75469V4.94916L12.915 9.87328Z" fill="#494949"/>
<path d="M19.5503 19.2038C19.332 19.2038 19.155 19.0267 19.155 18.8083V7.59853L12.7519 4.69928C12.553 4.60922 12.4648 4.3749 12.5548 4.17587C12.6449 3.97702 12.879 3.88874 13.0782 3.9788L19.7135 6.98329C19.855 7.04733 19.9456 7.18824 19.9456 7.34333V18.8083C19.9456 19.0267 19.7687 19.2038 19.5503 19.2038Z" fill="#FFD664"/>
<path d="M20.6574 19.9154C20.6574 20.5267 20.1618 21.0223 19.5505 21.0223C18.939 21.0223 18.4434 20.5267 18.4434 19.9154C18.4434 19.3039 18.939 18.8083 19.5505 18.8083C20.1618 18.8083 20.6574 19.3039 20.6574 19.9154Z" fill="#F7D360"/>
</svg>
