<svg width="19" height="25" viewBox="0 0 19 25" fill="none" xmlns="http://www.w3.org/2000/svg">
<path d="M12.0915 7.69901L4.84204 10.9857L10.7017 23.907L13.8569 21.2401L17.9324 20.6391L12.0915 7.69901Z" fill="#494949"/>
<path d="M6.72021 7.83047L13.9697 11.1171L8.11002 24.0572L4.95482 21.3715L0.860596 20.7706C0.860548 20.7706 6.72021 7.83047 6.72021 7.83047Z" fill="#636363"/>
<path d="M18.7964 9.40808C18.7964 10.103 17.801 10.6852 17.6507 11.3425C17.5005 12.0186 18.1578 12.9765 17.8761 13.5962C17.5756 14.216 16.43 14.2911 16.0168 14.817C15.6036 15.3429 15.7914 16.5073 15.2655 16.9393C14.7396 17.3713 13.6879 16.9205 13.0869 17.221C12.4859 17.5215 12.1667 18.6483 11.5093 18.7986C10.8708 18.9489 10.1008 18.0849 9.42465 18.0849C8.74855 18.0849 7.97852 18.9489 7.33996 18.7986C6.6826 18.6483 6.36335 17.5215 5.76236 17.221C5.16137 16.9205 4.09087 17.3713 3.58378 16.9393C3.05789 16.5073 3.24573 15.3429 2.83253 14.817C2.41933 14.2911 1.27372 14.216 0.973203 13.5962C0.691473 12.9953 1.34883 12.0187 1.19857 11.3425C1.01078 10.6852 0.0153809 10.103 0.0153809 9.40808C0.0153809 8.7132 1.01078 8.13095 1.16104 7.47365C1.3113 6.79755 0.653945 5.83968 0.935674 5.21991C1.23619 4.60013 2.3818 4.52503 2.795 3.99915C3.2082 3.47326 3.02036 2.30887 3.54625 1.87688C4.07213 1.44489 5.12384 1.89567 5.72483 1.59515C6.32582 1.29463 6.64508 0.16781 7.30243 0.0175513C7.94099 -0.132707 8.71098 0.731221 9.38712 0.731221C10.0632 0.731221 10.8332 -0.132707 11.4718 0.0175513C12.1292 0.16781 12.4484 1.29468 13.0494 1.59515C13.6504 1.89567 14.7209 1.44489 15.228 1.87688C15.7539 2.30882 15.566 3.47326 15.9792 3.99915C16.3924 4.52503 17.538 4.60013 17.8386 5.21991C18.1203 5.8209 17.4629 6.7975 17.6132 7.47365C17.801 8.131 18.7964 8.7132 18.7964 9.40808Z" fill="#FFD664"/>
<path fill-rule="evenodd" clip-rule="evenodd" d="M9.40594 2.64691C5.66855 2.64691 2.64478 5.67064 2.64478 9.40808C2.64478 13.1455 5.6685 16.1692 9.40594 16.1692C13.1434 16.1692 16.1671 13.1455 16.1671 9.40808C16.1671 5.67068 13.1433 2.64691 9.40594 2.64691ZM5.64976 9.40808C5.64976 7.34217 7.32125 5.6519 9.40594 5.6519C11.4906 5.6519 13.1621 7.34217 13.1621 9.40808C13.1621 11.474 11.4906 13.1643 9.40594 13.1643C7.34004 13.1643 5.64976 11.474 5.64976 9.40808ZM7.71566 9.40808C7.71566 10.3471 8.46691 11.0984 9.40594 11.0984C10.345 11.0984 11.0962 10.3471 11.0962 9.40808C11.0962 8.46904 10.345 7.7178 9.40594 7.7178C8.46691 7.7178 7.71566 8.46904 7.71566 9.40808ZM3.77164 9.40808C3.77164 12.5257 6.28832 15.0424 9.40594 15.0424C12.5236 15.0424 15.0402 12.5257 15.0402 9.40808C15.0402 6.29041 12.5236 3.77378 9.40594 3.77378C6.28827 3.77378 3.77164 6.29041 3.77164 9.40808Z" fill="#F9C646"/>
</svg>
