<svg width="18" height="20" viewBox="0 0 18 20" fill="none" xmlns="http://www.w3.org/2000/svg">
<path d="M14.0002 18.4369C14.0002 19.0903 13.4705 19.62 12.8171 19.62H1.18314C0.529748 19.62 0 19.0903 0 18.4369V3.41126C0 2.75787 0.529748 2.22827 1.18314 2.22827H12.8171C13.4705 2.22827 14.0002 2.75787 14.0002 3.41126V18.4369Z" fill="#AA8452"/>
<path d="M14.0002 3.41126V18.4369C14.0002 19.0904 13.4706 19.62 12.8171 19.62H11.6339C12.2875 19.62 12.8171 19.0904 12.8171 18.4369V3.41126C12.8171 2.75787 12.2875 2.22827 11.6339 2.22827H12.8171C13.4704 2.22827 14.0002 2.75787 14.0002 3.41126Z" fill="#7F5C3E"/>
<path d="M12.8172 3.56903C12.8172 3.4602 12.7288 3.37189 12.6199 3.37189H1.34097C1.23199 3.37189 1.14368 3.4602 1.14368 3.56903V18.2397C1.14368 18.3485 1.23199 18.4369 1.34097 18.4369H12.62C12.7288 18.4369 12.8172 18.3485 12.8172 18.2397V3.56903Z" fill="white"/>
<path d="M8.67122 2.01122V0.59157C8.67122 0.264799 8.40627 0 8.07965 0H5.91051C5.58389 0 5.31909 0.264799 5.31909 0.59157V2.01122H8.67122Z" fill="#CCCCCC"/>
<path d="M8.67119 0.59157V2.01122H7.48805V0.59157C7.48805 0.264949 7.2234 0 6.89648 0H8.07962C8.40654 0 8.67119 0.264949 8.67119 0.59157Z" fill="#A0A0A0"/>
<path d="M4.01745 1.61694C3.79965 1.61694 3.62317 1.79358 3.62317 2.01122V3.9437C3.62317 4.1615 3.79965 4.33799 4.01745 4.33799H9.97252C10.1903 4.33799 10.3668 4.1615 10.3668 3.9437V2.01122C10.3668 1.79343 10.1903 1.61694 9.97252 1.61694H4.01745Z" fill="#E8E8E8"/>
<path d="M16.9907 5.41321L16.4103 5.07821C16.2219 4.96938 15.9807 5.0339 15.8719 5.2225L15.3793 6.07588L15.7893 6.80516H16.6422L17.135 5.95164C17.2438 5.76318 17.1793 5.52203 16.9907 5.41321Z" fill="#DB8733"/>
<path d="M15.1744 5.9576L16.8472 6.92339C17.0356 7.03221 17.1001 7.27321 16.9913 7.46182L16.5972 8.1444L14.9744 7.96537L14.2418 6.78463L14.636 6.1019C14.7449 5.91329 14.9859 5.84878 15.1744 5.9576Z" fill="#EDAF54"/>
<path d="M12.6753 14.9374H11.2095L10.3199 13.5777L14.2418 6.78464L16.5971 8.14441L12.6753 14.9374Z" fill="#FFD47D"/>
<path d="M11.8577 16.0665L10.1572 16.8551C10.0321 16.9132 9.88766 16.8279 9.87778 16.6903L9.7459 14.8427C9.73468 14.6857 9.77075 14.5288 9.84949 14.3924L10.32 13.5777L12.6753 14.9374L12.2087 15.7455C12.1276 15.8862 12.005 15.9981 11.8577 16.0665Z" fill="#EDAF54"/>
<path d="M2.95052 16.478C2.88076 16.478 2.81056 16.4533 2.75428 16.4033C2.63213 16.2948 2.62105 16.1078 2.72958 15.9859L3.3918 15.2401C3.487 15.1329 3.62382 15.0725 3.76737 15.0745C3.91077 15.0766 4.04594 15.1409 4.13815 15.2507L4.5935 15.7938L5.13747 15.2033C5.23073 15.1019 5.3626 15.0443 5.50002 15.0443H5.50526C5.64447 15.0458 5.77724 15.1064 5.86945 15.2109L6.54694 15.9778C6.65517 16.1002 6.64364 16.287 6.52119 16.3953C6.39875 16.5033 6.21179 16.4918 6.10371 16.3694L5.49852 15.6844L4.95246 16.2771C4.85651 16.3815 4.72029 16.4388 4.57853 16.436C4.43678 16.4327 4.30326 16.3685 4.21225 16.2599L3.75824 15.7184L3.17176 16.3786C3.11338 16.4445 3.03225 16.478 2.95052 16.478Z" fill="#515759"/>
<path d="M11.1852 6.72402H2.78516C2.62185 6.72402 2.48938 6.59169 2.48938 6.42823C2.48938 6.26492 2.62185 6.13245 2.78516 6.13245H11.1852C11.3487 6.13245 11.481 6.26477 11.481 6.42823C11.481 6.59169 11.3487 6.72402 11.1852 6.72402Z" fill="#515759"/>
<path d="M6.33452 8.30159H2.82462C2.66116 8.30159 2.52869 8.16911 2.52869 8.00565C2.52869 7.84234 2.66116 7.70987 2.82462 7.70987H6.33452C6.49783 7.70987 6.63031 7.84234 6.63031 8.00565C6.63031 8.16911 6.49783 8.30159 6.33452 8.30159Z" fill="#515759"/>
<path d="M9.09513 8.30159H7.71485C7.55154 8.30159 7.41907 8.16911 7.41907 8.00565C7.41907 7.84234 7.55154 7.70987 7.71485 7.70987H9.09513C9.25844 7.70987 9.39092 7.84234 9.39092 8.00565C9.39092 8.16911 9.25844 8.30159 9.09513 8.30159Z" fill="#515759"/>
<path d="M5.66404 9.87901H2.82459C2.66113 9.87901 2.52881 9.74669 2.52881 9.58323C2.52881 9.41977 2.66113 9.28745 2.82459 9.28745H5.66404C5.82735 9.28745 5.95982 9.41977 5.95982 9.58323C5.95982 9.74669 5.82735 9.87901 5.66404 9.87901Z" fill="#515759"/>
<path d="M8.26692 9.87901H6.92616C6.7627 9.87901 6.63037 9.74669 6.63037 9.58323C6.63037 9.41977 6.7627 9.28745 6.92616 9.28745H8.26692C8.43038 9.28745 8.5627 9.41977 8.5627 9.58323C8.5627 9.74669 8.43023 9.87901 8.26692 9.87901Z" fill="#515759"/>
<path d="M4.87536 11.4566H2.82462C2.66116 11.4566 2.52869 11.3241 2.52869 11.1607C2.52869 10.9973 2.66116 10.8649 2.82462 10.8649H4.87536C5.03867 10.8649 5.17114 10.9973 5.17114 11.1607C5.17114 11.3241 5.03867 11.4566 4.87536 11.4566Z" fill="#515759"/>
<path d="M8.26684 11.4566H6.13722C5.97391 11.4566 5.84143 11.3241 5.84143 11.1607C5.84143 10.9973 5.97391 10.8649 6.13722 10.8649H8.26684C8.4303 10.8649 8.56262 10.9973 8.56262 11.1607C8.56262 11.3241 8.43015 11.4566 8.26684 11.4566Z" fill="#515759"/>
<path d="M4.87536 13.034H2.82462C2.66116 13.034 2.52869 12.9017 2.52869 12.7382C2.52869 12.5749 2.66116 12.4424 2.82462 12.4424H4.87536C5.03867 12.4424 5.17114 12.5748 5.17114 12.7382C5.17114 12.9015 5.03867 13.034 4.87536 13.034Z" fill="#515759"/>
<path d="M10.367 2.01122V3.9437C10.367 4.16135 10.1902 4.33799 9.97257 4.33799H8.78943C9.00723 4.33799 9.18386 4.16135 9.18386 3.9437V2.01122C9.18386 1.79358 9.00723 1.61694 8.78943 1.61694H9.97257C10.1902 1.61694 10.367 1.79358 10.367 2.01122Z" fill="#CCCCCC"/>
<path d="M16.9915 7.4617L16.5974 8.14428L15.5728 7.55286L15.9669 6.87013C16.0757 6.68152 16.0112 6.44067 15.8227 6.33185L16.8474 6.92342C17.0358 7.03224 17.1003 7.27309 16.9915 7.4617Z" fill="#DB8733"/>
<path d="M11.6504 14.3462L15.5724 7.55328L16.597 8.14485L12.6749 14.9377L11.6504 14.3462Z" fill="#E89E46"/>
<path d="M12.6753 14.9374L12.2087 15.7456C12.1276 15.8859 12.005 15.9981 11.8576 16.0665L10.1574 16.8549C10.0324 16.913 9.88751 16.828 9.87763 16.6903L9.82434 15.9427L10.8329 15.475C10.9804 15.4065 11.103 15.2943 11.1841 15.154L11.6505 14.3459L12.6753 14.9374Z" fill="#DB8733"/>
</svg>
