<svg width="23" height="23" viewBox="0 0 23 23" fill="none" xmlns="http://www.w3.org/2000/svg">
<path fill-rule="evenodd" clip-rule="evenodd" d="M11.9556 19.8443C11.6642 19.6912 11.3162 19.6912 11.0249 19.8443L5.48704 22.7558C4.75341 23.1415 3.89598 22.5185 4.03609 21.7016L5.09373 15.5351C5.14936 15.2107 5.04182 14.8797 4.80613 14.65L0.325915 10.2828C-0.267603 9.7043 0.0599078 8.69633 0.880128 8.57714L7.07163 7.67746C7.39734 7.63014 7.67891 7.42557 7.82457 7.13042L10.5935 1.51997C10.9603 0.776722 12.0202 0.776722 12.387 1.51997L15.1559 7.13042C15.3016 7.42557 15.5831 7.63014 15.9088 7.67746L22.1003 8.57714C22.9206 8.69633 23.2481 9.7043 22.6545 10.2828L18.1743 14.65C17.9386 14.8797 17.8311 15.2107 17.8867 15.5351L18.9444 21.7016C19.0845 22.5185 18.2271 23.1415 17.4934 22.7558L11.9556 19.8443Z" fill="#FE9F35"/>
</svg>
